# xmcd CD database file
#
# Track frame offsets:
#	150
#	16655
#	38416
#	58370
#	78269
#	94764
#	116916
#	131158
#	154307
#	174038
#	193646
#	214747
#
# Disc length: 3220 seconds
#
# Revision: 1
# Processed by: cddbd v1.5.2PL0 Copyright (c) Steve Scherf et al.
# Submitted via: CDex 1.50
#
DISCID=990c920c
DTITLE=Enigma - A Posteriori
DYEAR=2006
DGENRE=New Age
TTITLE0=Eppur Si Muove
TTITLE1=Feel Me Heaven
TTITLE2=Dreaming Of Andromeda
TTITLE3=Dancing With Mephisto
TTITLE4=Northern Lights
TTITLE5=Invisible Love
TTITLE6=Message from Io
TTITLE7=Hello And Welcome
TTITLE8=20.000 Miles Over The Sea
TTITLE9=Sitting On The Moon
TTITLE10=The Alchemist
TTITLE11=Goodbye Milky Way
EXTD=YEAR: 2006
EXTT0=
EXTT1=
EXTT2=
EXTT3=
EXTT4=
EXTT5=
EXTT6=
EXTT7=
EXTT8=
EXTT9=
EXTT10=
EXTT11=
PLAYORDER=
